<?xml version="1.0" encoding="UTF-8" standalone="no"?>
<!-- Created with Inkscape (http://www.inkscape.org/) -->

<svg
   width="22.630693mm"
   height="11.565114mm"
   viewBox="0 0 22.630693 11.565114"
   version="1.1"
   id="svg499"
   xmlns="http://www.w3.org/2000/svg"
   xmlns:svg="http://www.w3.org/2000/svg">
  <defs
     id="defs496">
    <clipPath
       id="clipPath28"
       clipPathUnits="userSpaceOnUse">
      <path
         id="path26"
         d="M 0,0 H 595.276 V 841.89 H 0 Z" />
    </clipPath>
  </defs>
  <g
     id="layer1"
     transform="translate(-88.249078,-140.17753)">
    <g
       id="g22"
       transform="matrix(0.35277777,0,0,-0.35277777,35.584507,420.37967)">
      <g
         clip-path="url(#clipPath28)"
         id="g24">
        <g
           transform="translate(149.2854,770.2138)"
           id="g30">
          <path
             id="path32"
             style="fill:#000000;fill-opacity:1;fill-rule:nonzero;stroke:none"
             d="M 0,0 H 4.031 C 4.439,0 4.811,-0.036 5.147,-0.108 5.483,-0.18 5.771,-0.3 6.011,-0.456 6.251,-0.624 6.443,-0.84 6.575,-1.116 6.707,-1.392 6.767,-1.728 6.767,-2.124 6.767,-2.555 6.671,-2.915 6.479,-3.203 6.275,-3.491 5.987,-3.731 5.603,-3.911 6.131,-4.067 6.527,-4.332 6.791,-4.704 7.042,-5.088 7.174,-5.544 7.174,-6.083 7.174,-6.515 7.09,-6.887 6.923,-7.198 6.755,-7.523 6.527,-7.775 6.251,-7.979 5.963,-8.182 5.639,-8.327 5.279,-8.422 4.907,-8.518 4.535,-8.567 4.151,-8.567 H 0 Z m 1.884,-3.466 h 1.907 c 0.336,0 0.612,0.083 0.828,0.239 0.216,0.156 0.324,0.42 0.324,0.78 0,0.204 -0.036,0.359 -0.108,0.491 -0.072,0.132 -0.168,0.228 -0.288,0.3 -0.12,0.072 -0.252,0.12 -0.408,0.156 -0.156,0.024 -0.324,0.036 -0.492,0.036 H 1.884 Z m 0,-3.637 h 2.015 c 0.18,0 0.36,0.024 0.528,0.06 0.168,0.036 0.312,0.096 0.444,0.18 0.132,0.084 0.228,0.192 0.312,0.336 0.072,0.144 0.107,0.324 0.107,0.552 0,0.444 -0.119,0.755 -0.371,0.947 -0.252,0.18 -0.576,0.276 -0.984,0.276 H 1.884 Z m 6.192,1.632 c 0,0.492 0.072,0.948 0.228,1.355 0.156,0.396 0.372,0.744 0.648,1.032 0.276,0.276 0.612,0.504 1.008,0.66 0.395,0.156 0.827,0.228 1.319,0.228 0.492,0 0.936,-0.072 1.332,-0.228 0.396,-0.156 0.732,-0.384 1.008,-0.66 0.276,-0.288 0.492,-0.636 0.648,-1.032 0.155,-0.407 0.227,-0.863 0.227,-1.355 0,-0.492 -0.072,-0.948 -0.227,-1.344 -0.156,-0.396 -0.372,-0.744 -0.648,-1.02 -0.276,-0.288 -0.612,-0.504 -1.008,-0.66 -0.396,-0.156 -0.84,-0.228 -1.332,-0.228 -0.492,0 -0.924,0.072 -1.319,0.228 -0.396,0.156 -0.732,0.372 -1.008,0.66 -0.276,0.276 -0.492,0.624 -0.648,1.02 -0.156,0.396 -0.228,0.852 -0.228,1.344 m 1.704,0 c 0,-0.252 0.024,-0.492 0.072,-0.72 0.048,-0.24 0.132,-0.456 0.251,-0.636 0.108,-0.192 0.264,-0.348 0.456,-0.456 0.192,-0.108 0.432,-0.168 0.72,-0.168 0.288,0 0.528,0.06 0.732,0.168 0.192,0.108 0.348,0.264 0.468,0.456 0.108,0.18 0.192,0.396 0.24,0.636 0.048,0.228 0.072,0.468 0.072,0.72 0,0.252 -0.024,0.492 -0.072,0.732 -0.048,0.24 -0.132,0.455 -0.24,0.635 -0.12,0.18 -0.276,0.336 -0.468,0.456 -0.204,0.108 -0.444,0.168 -0.732,0.168 -0.288,0 -0.528,-0.06 -0.72,-0.168 -0.192,-0.12 -0.348,-0.276 -0.456,-0.456 C 9.984,-4.284 9.9,-4.499 9.852,-4.739 9.804,-4.979 9.78,-5.219 9.78,-5.471 m 11.638,-3.096 h -1.62 v 0.864 h -0.036 c -0.216,-0.36 -0.491,-0.624 -0.839,-0.78 -0.348,-0.156 -0.696,-0.24 -1.056,-0.24 -0.455,0 -0.827,0.06 -1.115,0.18 -0.3,0.12 -0.528,0.288 -0.696,0.516 -0.168,0.216 -0.288,0.48 -0.348,0.804 -0.072,0.312 -0.108,0.66 -0.108,1.044 v 3.815 h 1.704 v -3.503 c 0,-0.516 0.084,-0.888 0.24,-1.14 0.156,-0.252 0.443,-0.384 0.851,-0.384 0.468,0 0.804,0.144 1.008,0.42 0.203,0.276 0.311,0.72 0.311,1.356 v 3.251 h 1.704 z m 1.298,6.203 h 1.62 v -0.864 h 0.036 c 0.216,0.36 0.491,0.624 0.839,0.792 0.348,0.156 0.696,0.24 1.056,0.24 0.455,0 0.827,-0.06 1.127,-0.18 0.288,-0.132 0.516,-0.3 0.684,-0.516 0.168,-0.228 0.288,-0.492 0.36,-0.804 0.06,-0.324 0.096,-0.671 0.096,-1.055 V -8.567 H 26.83 v 3.504 c 0,0.516 -0.084,0.899 -0.24,1.151 -0.156,0.252 -0.443,0.372 -0.851,0.372 -0.468,0 -0.804,-0.132 -1.008,-0.408 -0.203,-0.276 -0.311,-0.731 -0.311,-1.367 v -3.252 h -1.704 z m 11.542,-5.411 h -0.024 c -0.204,-0.336 -0.455,-0.576 -0.779,-0.72 -0.324,-0.156 -0.696,-0.228 -1.104,-0.228 -0.468,0 -0.876,0.084 -1.224,0.276 -0.348,0.18 -0.636,0.42 -0.864,0.732 -0.228,0.3 -0.408,0.66 -0.516,1.056 -0.119,0.396 -0.179,0.816 -0.179,1.248 0,0.42 0.06,0.816 0.179,1.212 0.108,0.384 0.288,0.72 0.516,1.02 0.228,0.299 0.504,0.539 0.852,0.719 0.348,0.18 0.744,0.264 1.2,0.264 0.372,0 0.72,-0.072 1.056,-0.228 0.324,-0.156 0.587,-0.396 0.779,-0.695 h 0.024 V 0 h 1.704 v -8.567 h -1.62 z m -0.024,2.328 c 0,0.252 -0.024,0.504 -0.072,0.744 -0.048,0.228 -0.132,0.444 -0.24,0.624 -0.119,0.18 -0.275,0.324 -0.455,0.432 -0.18,0.108 -0.42,0.168 -0.696,0.168 -0.276,0 -0.516,-0.06 -0.708,-0.168 -0.192,-0.108 -0.348,-0.264 -0.456,-0.444 -0.12,-0.18 -0.204,-0.396 -0.252,-0.624 -0.06,-0.24 -0.084,-0.492 -0.084,-0.744 0,-0.24 0.024,-0.48 0.084,-0.72 0.06,-0.24 0.144,-0.456 0.276,-0.636 0.12,-0.192 0.276,-0.348 0.468,-0.456 0.18,-0.12 0.408,-0.18 0.672,-0.18 0.276,0 0.516,0.06 0.708,0.168 0.18,0.108 0.335,0.264 0.443,0.456 0.108,0.18 0.192,0.396 0.24,0.636 0.048,0.24 0.072,0.492 0.072,0.744 m 2.857,1.175 c 0.024,0.396 0.12,0.732 0.3,0.996 0.18,0.264 0.396,0.48 0.672,0.636 0.276,0.156 0.576,0.276 0.924,0.348 0.336,0.06 0.672,0.096 1.02,0.096 0.312,0 0.624,-0.024 0.947,-0.06 0.324,-0.048 0.612,-0.132 0.876,-0.264 0.264,-0.132 0.48,-0.3 0.648,-0.528 0.168,-0.228 0.252,-0.54 0.252,-0.912 v -3.227 c 0,-0.276 0.012,-0.552 0.048,-0.804 0.036,-0.252 0.084,-0.444 0.168,-0.576 h -1.728 c -0.036,0.096 -0.06,0.192 -0.072,0.3 -0.024,0.096 -0.036,0.192 -0.048,0.3 -0.276,-0.276 -0.587,-0.48 -0.959,-0.588 -0.372,-0.108 -0.744,-0.168 -1.128,-0.168 -0.3,0 -0.576,0.036 -0.828,0.108 -0.252,0.072 -0.48,0.18 -0.672,0.336 -0.192,0.156 -0.336,0.348 -0.444,0.576 -0.108,0.228 -0.168,0.504 -0.168,0.828 0,0.348 0.06,0.648 0.192,0.876 0.12,0.228 0.276,0.408 0.48,0.54 0.192,0.132 0.42,0.24 0.672,0.312 0.252,0.06 0.504,0.12 0.756,0.156 0.252,0.036 0.504,0.072 0.756,0.096 0.252,0.024 0.468,0.06 0.66,0.108 0.192,0.048 0.347,0.12 0.455,0.216 0.108,0.084 0.168,0.215 0.156,0.395 0,0.18 -0.024,0.336 -0.084,0.444 -0.06,0.108 -0.144,0.192 -0.239,0.252 -0.108,0.06 -0.216,0.096 -0.348,0.12 -0.132,0.012 -0.276,0.024 -0.432,0.024 -0.336,0 -0.6,-0.072 -0.792,-0.216 -0.192,-0.144 -0.3,-0.384 -0.336,-0.72 z m 3.935,-1.259 c -0.072,-0.06 -0.156,-0.108 -0.264,-0.144 -0.108,-0.036 -0.228,-0.072 -0.348,-0.096 -0.132,-0.024 -0.264,-0.048 -0.395,-0.06 -0.132,-0.012 -0.276,-0.036 -0.408,-0.06 -0.132,-0.024 -0.252,-0.06 -0.372,-0.096 -0.132,-0.036 -0.24,-0.096 -0.324,-0.156 -0.096,-0.072 -0.168,-0.156 -0.228,-0.264 -0.06,-0.108 -0.084,-0.24 -0.084,-0.396 0,-0.156 0.024,-0.276 0.084,-0.384 0.06,-0.108 0.132,-0.18 0.228,-0.24 0.096,-0.06 0.204,-0.108 0.336,-0.132 0.132,-0.024 0.264,-0.036 0.396,-0.036 0.336,0 0.599,0.06 0.779,0.168 0.18,0.108 0.324,0.252 0.408,0.408 0.084,0.156 0.144,0.312 0.168,0.468 0.012,0.156 0.024,0.288 0.024,0.384 z m 3.025,3.167 h 1.62 v -1.152 h 0.024 c 0.084,0.192 0.192,0.372 0.324,0.54 0.132,0.156 0.287,0.3 0.467,0.42 0.18,0.108 0.36,0.204 0.564,0.264 0.204,0.06 0.408,0.096 0.624,0.096 0.108,0 0.24,-0.024 0.372,-0.06 V -3.84 c -0.084,0.012 -0.18,0.036 -0.288,0.048 -0.108,0.012 -0.216,0.012 -0.324,0.012 -0.312,0 -0.576,-0.048 -0.792,-0.156 -0.216,-0.108 -0.384,-0.24 -0.515,-0.419 -0.132,-0.18 -0.228,-0.396 -0.288,-0.636 -0.06,-0.24 -0.084,-0.504 -0.084,-0.78 v -2.796 h -1.704 z m 6.419,0.96 H 48.768 V 0 h 1.702 z m -1.703,-0.958 h 1.702 v -6.204 h -1.702 z m 4.452,-3.518 c 0.024,-0.551 0.168,-0.947 0.42,-1.198 0.252,-0.253 0.624,-0.373 1.103,-0.373 0.348,0 0.636,0.084 0.888,0.264 0.252,0.169 0.396,0.348 0.456,0.541 h 1.5 c -0.24,-0.745 -0.612,-1.273 -1.104,-1.596 -0.492,-0.325 -1.092,-0.481 -1.8,-0.481 -0.491,0 -0.923,0.072 -1.319,0.241 -0.396,0.155 -0.72,0.371 -0.996,0.659 -0.276,0.289 -0.48,0.636 -0.624,1.032 -0.156,0.396 -0.228,0.839 -0.228,1.32 0,0.468 0.072,0.9 0.228,1.296 0.156,0.395 0.372,0.743 0.648,1.043 0.276,0.288 0.612,0.516 1.008,0.684 0.384,0.168 0.816,0.252 1.283,0.252 0.528,0 0.984,-0.096 1.38,-0.3 0.396,-0.204 0.72,-0.48 0.972,-0.828 0.252,-0.348 0.432,-0.731 0.54,-1.175 0.108,-0.444 0.156,-0.9 0.12,-1.381 z m 2.771,1.081 c -0.084,0.432 -0.216,0.756 -0.42,0.983 -0.204,0.228 -0.516,0.336 -0.936,0.336 -0.276,0 -0.491,-0.048 -0.671,-0.132 -0.18,-0.096 -0.324,-0.216 -0.432,-0.347 -0.108,-0.132 -0.192,-0.276 -0.228,-0.432 -0.048,-0.156 -0.072,-0.288 -0.084,-0.408 z m 4.033,-1.752 c 0,-0.18 0.036,-0.336 0.12,-0.468 0.072,-0.132 0.168,-0.24 0.288,-0.324 0.12,-0.084 0.263,-0.156 0.419,-0.192 0.156,-0.036 0.312,-0.06 0.48,-0.06 0.12,0 0.252,0.012 0.384,0.048 0.132,0.024 0.252,0.072 0.36,0.132 0.108,0.06 0.192,0.132 0.264,0.24 0.072,0.096 0.108,0.216 0.108,0.372 0,0.252 -0.168,0.444 -0.504,0.576 -0.348,0.132 -0.816,0.252 -1.427,0.384 -0.252,0.06 -0.492,0.12 -0.72,0.204 -0.24,0.072 -0.456,0.168 -0.636,0.3 -0.18,0.12 -0.336,0.276 -0.444,0.468 -0.108,0.18 -0.168,0.407 -0.168,0.683 0,0.396 0.084,0.732 0.24,0.984 0.156,0.252 0.36,0.456 0.612,0.612 0.252,0.144 0.54,0.252 0.864,0.312 0.323,0.06 0.647,0.084 0.983,0.084 0.336,0 0.66,-0.036 0.984,-0.096 0.312,-0.06 0.588,-0.168 0.84,-0.324 0.252,-0.156 0.456,-0.348 0.624,-0.6 0.156,-0.252 0.252,-0.576 0.288,-0.96 h -1.62 c -0.024,0.324 -0.144,0.552 -0.372,0.672 -0.228,0.108 -0.492,0.168 -0.792,0.168 -0.096,0 -0.204,0 -0.312,-0.012 -0.108,-0.012 -0.216,-0.048 -0.3,-0.084 -0.095,-0.036 -0.179,-0.096 -0.239,-0.168 -0.06,-0.084 -0.096,-0.18 -0.096,-0.312 0,-0.156 0.06,-0.276 0.168,-0.372 0.108,-0.096 0.263,-0.167 0.443,-0.227 0.18,-0.06 0.384,-0.12 0.612,-0.168 0.228,-0.048 0.468,-0.096 0.708,-0.156 0.252,-0.06 0.492,-0.12 0.732,-0.204 0.228,-0.084 0.444,-0.18 0.624,-0.312 0.18,-0.132 0.336,-0.3 0.444,-0.492 0.108,-0.204 0.168,-0.444 0.168,-0.732 0,-0.408 -0.084,-0.744 -0.24,-1.02 -0.168,-0.276 -0.384,-0.504 -0.648,-0.672 -0.264,-0.168 -0.564,-0.288 -0.9,-0.36 -0.348,-0.06 -0.696,-0.096 -1.044,-0.096 -0.36,0 -0.708,0.036 -1.055,0.108 -0.348,0.072 -0.648,0.192 -0.912,0.36 -0.276,0.168 -0.492,0.396 -0.66,0.672 -0.18,0.276 -0.276,0.612 -0.288,1.032 z" />
        </g>
        <g
           transform="translate(149.2854,782.2138)"
           id="g34">
          <path
             id="path36"
             style="fill:#000000;fill-opacity:1;fill-rule:nonzero;stroke:none"
             d="M 0,0 H 6.023 V -1.584 H 1.884 V -3.563 H 5.471 V -5.026 H 1.884 V -8.567 H 0 Z m 6.936,-2.364 h 1.619 v -1.152 h 0.024 c 0.084,0.192 0.192,0.372 0.324,0.54 0.132,0.156 0.288,0.3 0.468,0.42 0.18,0.108 0.36,0.204 0.564,0.264 0.204,0.06 0.408,0.096 0.623,0.096 0.108,0 0.24,-0.024 0.372,-0.06 V -3.84 c -0.084,0.012 -0.18,0.036 -0.288,0.048 -0.108,0.012 -0.215,0.012 -0.323,0.012 -0.312,0 -0.576,-0.048 -0.792,-0.156 C 9.311,-4.044 9.143,-4.176 9.011,-4.355 8.879,-4.535 8.783,-4.751 8.723,-4.991 8.663,-5.231 8.639,-5.495 8.639,-5.771 V -8.567 H 6.936 Z m 4.26,-3.107 c 0,0.492 0.072,0.948 0.228,1.355 0.156,0.396 0.372,0.744 0.648,1.032 0.276,0.276 0.612,0.504 1.007,0.66 0.396,0.156 0.828,0.228 1.32,0.228 0.492,0 0.936,-0.072 1.332,-0.228 0.396,-0.156 0.732,-0.384 1.008,-0.66 0.276,-0.288 0.491,-0.636 0.647,-1.032 0.156,-0.407 0.228,-0.863 0.228,-1.355 0,-0.492 -0.072,-0.948 -0.228,-1.344 -0.156,-0.396 -0.371,-0.744 -0.647,-1.02 -0.276,-0.288 -0.612,-0.504 -1.008,-0.66 -0.396,-0.156 -0.84,-0.228 -1.332,-0.228 -0.492,0 -0.924,0.072 -1.32,0.228 -0.395,0.156 -0.731,0.372 -1.007,0.66 -0.276,0.276 -0.492,0.624 -0.648,1.02 -0.156,0.396 -0.228,0.852 -0.228,1.344 m 1.703,0 c 0,-0.252 0.024,-0.492 0.072,-0.72 0.048,-0.24 0.132,-0.456 0.252,-0.636 0.108,-0.192 0.264,-0.348 0.456,-0.456 0.192,-0.108 0.432,-0.168 0.72,-0.168 0.288,0 0.528,0.06 0.732,0.168 0.192,0.108 0.348,0.264 0.468,0.456 0.108,0.18 0.192,0.396 0.24,0.636 0.048,0.228 0.072,0.468 0.072,0.72 0,0.252 -0.024,0.492 -0.072,0.732 -0.048,0.24 -0.132,0.455 -0.24,0.635 -0.12,0.18 -0.276,0.336 -0.468,0.456 -0.204,0.108 -0.444,0.168 -0.732,0.168 -0.288,0 -0.528,-0.06 -0.72,-0.168 -0.192,-0.12 -0.348,-0.276 -0.456,-0.456 -0.12,-0.18 -0.204,-0.395 -0.252,-0.635 -0.048,-0.24 -0.072,-0.48 -0.072,-0.732 m 5.821,3.107 h 1.62 v -0.864 h 0.036 c 0.216,0.36 0.492,0.624 0.839,0.792 0.348,0.156 0.696,0.24 1.056,0.24 0.455,0 0.827,-0.06 1.127,-0.18 0.288,-0.132 0.516,-0.3 0.684,-0.516 0.168,-0.228 0.288,-0.492 0.36,-0.804 0.06,-0.324 0.096,-0.671 0.096,-1.055 v -3.816 h -1.704 v 3.504 c 0,0.516 -0.084,0.899 -0.24,1.151 -0.155,0.252 -0.443,0.372 -0.851,0.372 -0.468,0 -0.804,-0.132 -1.007,-0.408 -0.204,-0.276 -0.312,-0.731 -0.312,-1.367 V -8.567 H 18.72 Z m 9.275,0 h 1.247 v -1.139 h -1.247 v -3.072 c 0,-0.288 0.048,-0.48 0.144,-0.576 0.095,-0.096 0.287,-0.144 0.575,-0.144 0.096,0 0.192,0 0.276,0.012 l 0.252,0.036 v -1.32 c -0.144,-0.024 -0.3,-0.036 -0.48,-0.048 -0.18,-0.012 -0.348,-0.012 -0.516,-0.012 -0.263,0 -0.515,0.012 -0.743,0.049 -0.24,0.047 -0.444,0.107 -0.624,0.215 -0.18,0.108 -0.324,0.252 -0.432,0.444 -0.108,0.192 -0.156,0.444 -0.156,0.756 v 3.66 H 25.26 v 1.139 h 1.031 v 1.86 h 1.704 z m 3.468,-3.516 c 0.024,-0.551 0.168,-0.947 0.42,-1.198 0.252,-0.253 0.624,-0.373 1.104,-0.373 0.348,0 0.636,0.084 0.887,0.264 0.252,0.169 0.396,0.348 0.456,0.541 h 1.5 c -0.24,-0.745 -0.612,-1.273 -1.104,-1.596 -0.492,-0.325 -1.091,-0.481 -1.799,-0.481 -0.492,0 -0.924,0.072 -1.32,0.241 -0.396,0.155 -0.72,0.371 -0.996,0.659 -0.276,0.289 -0.48,0.636 -0.624,1.032 -0.156,0.396 -0.227,0.839 -0.227,1.32 0,0.468 0.071,0.9 0.227,1.296 0.156,0.395 0.372,0.743 0.648,1.043 0.276,0.288 0.612,0.516 1.008,0.684 0.384,0.168 0.816,0.252 1.284,0.252 0.528,0 0.983,-0.096 1.379,-0.3 0.396,-0.204 0.72,-0.48 0.972,-0.828 0.252,-0.348 0.432,-0.731 0.54,-1.175 0.108,-0.444 0.156,-0.9 0.12,-1.381 z m 2.771,1.081 c -0.084,0.432 -0.216,0.756 -0.419,0.983 -0.204,0.228 -0.516,0.336 -0.936,0.336 -0.276,0 -0.492,-0.048 -0.672,-0.132 -0.18,-0.096 -0.324,-0.216 -0.432,-0.347 -0.108,-0.132 -0.192,-0.276 -0.228,-0.432 -0.048,-0.156 -0.072,-0.288 -0.084,-0.408 z m 2.713,2.435 h 1.62 v -1.152 h 0.024 c 0.084,0.192 0.192,0.372 0.324,0.54 0.132,0.156 0.288,0.3 0.467,0.42 0.18,0.108 0.36,0.204 0.564,0.264 0.204,0.06 0.408,0.096 0.624,0.096 0.108,0 0.24,-0.024 0.372,-0.06 V -3.84 c -0.084,0.012 -0.18,0.036 -0.288,0.048 -0.108,0.012 -0.216,0.012 -0.324,0.012 -0.312,0 -0.576,-0.048 -0.792,-0.156 -0.216,-0.108 -0.383,-0.24 -0.515,-0.419 -0.132,-0.18 -0.228,-0.396 -0.288,-0.636 -0.06,-0.24 -0.084,-0.504 -0.084,-0.78 v -2.796 h -1.704 z m 4.596,-1.908 c 0.024,0.396 0.12,0.732 0.3,0.996 0.18,0.264 0.396,0.48 0.672,0.636 0.276,0.156 0.576,0.276 0.924,0.348 0.336,0.06 0.672,0.096 1.02,0.096 0.311,0 0.623,-0.024 0.947,-0.06 0.324,-0.048 0.612,-0.132 0.876,-0.264 0.264,-0.132 0.48,-0.3 0.648,-0.528 0.168,-0.228 0.252,-0.54 0.252,-0.912 v -3.227 c 0,-0.276 0.012,-0.552 0.048,-0.804 0.036,-0.252 0.084,-0.444 0.168,-0.576 H 45.67 c -0.036,0.096 -0.06,0.192 -0.072,0.3 -0.024,0.096 -0.036,0.192 -0.048,0.3 -0.276,-0.276 -0.588,-0.48 -0.96,-0.588 -0.371,-0.108 -0.743,-0.168 -1.127,-0.168 -0.3,0 -0.576,0.036 -0.828,0.108 -0.252,0.072 -0.48,0.18 -0.672,0.336 -0.192,0.156 -0.336,0.348 -0.444,0.576 -0.108,0.228 -0.168,0.504 -0.168,0.828 0,0.348 0.06,0.648 0.192,0.876 0.12,0.228 0.276,0.408 0.48,0.54 0.192,0.132 0.42,0.24 0.672,0.312 0.252,0.06 0.504,0.12 0.756,0.156 0.252,0.036 0.504,0.072 0.756,0.096 0.252,0.024 0.467,0.06 0.659,0.108 0.192,0.048 0.348,0.12 0.456,0.216 0.108,0.084 0.168,0.215 0.156,0.395 0,0.18 -0.024,0.336 -0.084,0.444 -0.06,0.108 -0.144,0.192 -0.24,0.252 -0.108,0.06 -0.216,0.096 -0.348,0.12 -0.132,0.012 -0.275,0.024 -0.431,0.024 -0.336,0 -0.6,-0.072 -0.792,-0.216 -0.192,-0.144 -0.3,-0.384 -0.336,-0.72 z m 3.935,-1.259 c -0.072,-0.06 -0.156,-0.108 -0.264,-0.144 -0.108,-0.036 -0.228,-0.072 -0.348,-0.096 -0.132,-0.024 -0.264,-0.048 -0.396,-0.06 -0.132,-0.012 -0.275,-0.036 -0.407,-0.06 -0.132,-0.024 -0.252,-0.06 -0.372,-0.096 -0.132,-0.036 -0.24,-0.096 -0.324,-0.156 -0.096,-0.072 -0.168,-0.156 -0.228,-0.264 -0.06,-0.108 -0.084,-0.24 -0.084,-0.396 0,-0.156 0.024,-0.276 0.084,-0.384 0.06,-0.108 0.132,-0.18 0.228,-0.24 0.096,-0.06 0.204,-0.108 0.336,-0.132 0.132,-0.024 0.264,-0.036 0.396,-0.036 0.335,0 0.599,0.06 0.779,0.168 0.18,0.108 0.324,0.252 0.408,0.408 0.084,0.156 0.144,0.312 0.168,0.468 0.012,0.156 0.024,0.288 0.024,0.384 z m 4.345,-1.02 c 0,-0.18 0.036,-0.336 0.12,-0.468 0.072,-0.132 0.168,-0.24 0.288,-0.324 0.12,-0.084 0.264,-0.156 0.42,-0.192 0.155,-0.036 0.311,-0.06 0.479,-0.06 0.12,0 0.252,0.012 0.384,0.048 0.132,0.024 0.252,0.072 0.36,0.132 0.108,0.06 0.192,0.132 0.264,0.24 0.072,0.096 0.108,0.216 0.108,0.372 0,0.252 -0.168,0.444 -0.504,0.576 -0.348,0.132 -0.816,0.252 -1.427,0.384 -0.252,0.06 -0.492,0.12 -0.72,0.204 -0.24,0.072 -0.456,0.168 -0.636,0.3 -0.18,0.12 -0.336,0.276 -0.444,0.468 -0.108,0.18 -0.168,0.407 -0.168,0.683 0,0.396 0.084,0.732 0.24,0.984 0.156,0.252 0.36,0.456 0.612,0.612 0.252,0.144 0.54,0.252 0.864,0.312 0.324,0.06 0.648,0.084 0.983,0.084 0.336,0 0.66,-0.036 0.984,-0.096 0.312,-0.06 0.588,-0.168 0.84,-0.324 0.252,-0.156 0.456,-0.348 0.624,-0.6 0.156,-0.252 0.252,-0.576 0.288,-0.96 h -1.62 c -0.024,0.324 -0.144,0.552 -0.372,0.672 -0.228,0.108 -0.492,0.168 -0.792,0.168 -0.096,0 -0.204,0 -0.311,-0.012 -0.108,-0.012 -0.216,-0.048 -0.3,-0.084 -0.096,-0.036 -0.18,-0.096 -0.24,-0.168 -0.06,-0.084 -0.096,-0.18 -0.096,-0.312 0,-0.156 0.06,-0.276 0.168,-0.372 0.108,-0.096 0.264,-0.167 0.444,-0.227 0.179,-0.06 0.383,-0.12 0.611,-0.168 0.228,-0.048 0.468,-0.096 0.708,-0.156 0.252,-0.06 0.492,-0.12 0.732,-0.204 0.228,-0.084 0.444,-0.18 0.624,-0.312 0.18,-0.132 0.336,-0.3 0.444,-0.492 0.108,-0.204 0.168,-0.444 0.168,-0.732 0,-0.408 -0.084,-0.744 -0.24,-1.02 -0.168,-0.276 -0.384,-0.504 -0.648,-0.672 -0.264,-0.168 -0.564,-0.288 -0.9,-0.36 -0.348,-0.06 -0.696,-0.096 -1.044,-0.096 -0.36,0 -0.707,0.036 -1.055,0.108 -0.348,0.072 -0.648,0.192 -0.912,0.36 -0.276,0.168 -0.492,0.396 -0.66,0.672 -0.18,0.276 -0.276,0.612 -0.288,1.032 z" />
        </g>
        <g
           transform="translate(149.2854,794.2138)"
           id="g38">
          <path
             id="path40"
             style="fill:#000000;fill-opacity:1;fill-rule:nonzero;stroke:none"
             d="M 0,0 H 2.652 L 4.655,-5.891 H 4.679 L 6.575,0 H 9.227 V -8.567 H 7.463 v 6.071 H 7.439 l -2.1,-6.071 H 3.887 L 1.788,-2.556 H 1.764 V -8.567 H 0 Z m 16.522,-8.567 h -1.62 v 0.864 h -0.036 c -0.215,-0.36 -0.491,-0.624 -0.839,-0.78 -0.348,-0.156 -0.696,-0.24 -1.055,-0.24 -0.456,0 -0.828,0.06 -1.116,0.18 -0.3,0.12 -0.528,0.288 -0.696,0.516 -0.168,0.216 -0.288,0.48 -0.348,0.804 -0.072,0.312 -0.108,0.66 -0.108,1.044 v 3.815 h 1.704 v -3.503 c 0,-0.516 0.084,-0.888 0.24,-1.14 0.156,-0.252 0.444,-0.384 0.851,-0.384 0.468,0 0.804,0.144 1.008,0.42 0.204,0.276 0.311,0.72 0.311,1.356 v 3.251 h 1.704 z m 7.26,0.395 c 0,-0.252 -0.036,-0.527 -0.096,-0.851 -0.072,-0.323 -0.216,-0.623 -0.444,-0.899 -0.228,-0.276 -0.551,-0.505 -0.971,-0.697 -0.42,-0.191 -0.996,-0.287 -1.704,-0.287 -0.3,0 -0.612,0.036 -0.924,0.107 -0.324,0.084 -0.612,0.205 -0.863,0.36 -0.264,0.156 -0.48,0.361 -0.648,0.612 -0.18,0.252 -0.276,0.564 -0.3,0.913 h 1.691 c 0.084,-0.325 0.24,-0.541 0.468,-0.672 0.228,-0.12 0.504,-0.181 0.804,-0.181 0.48,0 0.828,0.145 1.056,0.432 0.216,0.288 0.324,0.648 0.312,1.091 v 0.816 h -0.024 c -0.18,-0.324 -0.444,-0.564 -0.78,-0.72 -0.348,-0.156 -0.708,-0.24 -1.08,-0.24 -0.468,0 -0.864,0.084 -1.2,0.252 -0.335,0.156 -0.611,0.384 -0.827,0.672 -0.216,0.276 -0.372,0.612 -0.468,0.996 -0.108,0.372 -0.156,0.78 -0.156,1.2 0,0.396 0.06,0.792 0.18,1.164 0.108,0.372 0.276,0.696 0.504,0.984 0.228,0.276 0.504,0.504 0.839,0.672 0.324,0.168 0.708,0.252 1.14,0.252 0.408,0 0.768,-0.072 1.08,-0.228 0.3,-0.156 0.564,-0.408 0.768,-0.768 h 0.024 v 0.828 h 1.619 z m -3.071,1.068 c 0.24,0 0.456,0.048 0.636,0.144 0.18,0.096 0.336,0.228 0.456,0.384 0.12,0.156 0.216,0.348 0.276,0.552 0.06,0.204 0.084,0.408 0.084,0.636 0,0.252 -0.024,0.504 -0.072,0.732 -0.048,0.228 -0.132,0.42 -0.24,0.6 -0.108,0.18 -0.264,0.312 -0.444,0.42 -0.18,0.108 -0.42,0.156 -0.696,0.156 -0.24,0 -0.444,-0.048 -0.612,-0.144 -0.18,-0.096 -0.324,-0.228 -0.432,-0.384 -0.12,-0.168 -0.204,-0.36 -0.252,-0.564 -0.06,-0.216 -0.084,-0.444 -0.084,-0.672 0,-0.228 0.024,-0.444 0.072,-0.66 0.036,-0.228 0.12,-0.42 0.228,-0.6 0.108,-0.18 0.24,-0.324 0.42,-0.432 0.18,-0.108 0.396,-0.168 0.66,-0.168 m 4.369,2.832 c 0.024,0.396 0.12,0.732 0.3,0.996 0.18,0.264 0.396,0.48 0.671,0.636 0.276,0.156 0.576,0.276 0.924,0.348 0.336,0.06 0.672,0.096 1.02,0.096 0.312,0 0.624,-0.024 0.948,-0.06 0.324,-0.048 0.612,-0.132 0.876,-0.264 0.263,-0.132 0.479,-0.3 0.647,-0.528 0.168,-0.228 0.252,-0.54 0.252,-0.912 v -3.227 c 0,-0.276 0.012,-0.552 0.048,-0.804 0.036,-0.252 0.084,-0.444 0.168,-0.576 h -1.727 c -0.036,0.096 -0.06,0.192 -0.072,0.3 -0.024,0.096 -0.036,0.192 -0.048,0.3 -0.276,-0.276 -0.588,-0.48 -0.96,-0.588 -0.372,-0.108 -0.744,-0.168 -1.128,-0.168 -0.3,0 -0.576,0.036 -0.828,0.108 -0.252,0.072 -0.479,0.18 -0.671,0.336 -0.192,0.156 -0.336,0.348 -0.444,0.576 -0.108,0.228 -0.168,0.504 -0.168,0.828 0,0.348 0.06,0.648 0.192,0.876 0.12,0.228 0.276,0.408 0.48,0.54 0.192,0.132 0.419,0.24 0.671,0.312 0.252,0.06 0.504,0.12 0.756,0.156 0.252,0.036 0.504,0.072 0.756,0.096 0.252,0.024 0.468,0.06 0.66,0.108 0.192,0.048 0.348,0.12 0.456,0.216 0.108,0.084 0.168,0.215 0.156,0.395 0,0.18 -0.024,0.336 -0.084,0.444 -0.06,0.108 -0.144,0.192 -0.24,0.252 -0.108,0.06 -0.216,0.096 -0.348,0.12 -0.132,0.012 -0.276,0.024 -0.432,0.024 -0.336,0 -0.6,-0.072 -0.792,-0.216 -0.192,-0.144 -0.3,-0.384 -0.336,-0.72 z m 3.934,-1.259 c -0.072,-0.06 -0.156,-0.108 -0.264,-0.144 -0.108,-0.036 -0.227,-0.072 -0.347,-0.096 -0.132,-0.024 -0.264,-0.048 -0.396,-0.06 -0.132,-0.012 -0.276,-0.036 -0.408,-0.06 -0.132,-0.024 -0.252,-0.06 -0.372,-0.096 -0.132,-0.036 -0.24,-0.096 -0.323,-0.156 -0.096,-0.072 -0.168,-0.156 -0.228,-0.264 -0.06,-0.108 -0.084,-0.24 -0.084,-0.396 0,-0.156 0.024,-0.276 0.084,-0.384 0.06,-0.108 0.132,-0.18 0.228,-0.24 0.095,-0.06 0.203,-0.108 0.335,-0.132 0.132,-0.024 0.264,-0.036 0.396,-0.036 0.336,0 0.6,0.06 0.78,0.168 0.179,0.108 0.323,0.252 0.407,0.408 0.084,0.156 0.144,0.312 0.168,0.468 0.012,0.156 0.024,0.288 0.024,0.384 z M 32.196,0 h 1.703 v -4.595 l 2.148,2.231 h 2.015 l -2.339,-2.279 2.603,-3.924 h -2.063 l -1.704,2.772 -0.66,-0.636 v -2.136 h -1.703 z m 10.199,0.06 h 1.847 l -3.251,-8.687 h -1.836 z" />
        </g>
      </g>
    </g>
  </g>
</svg>
